<?xml version="1.0" encoding="UTF-8"?>
<!DOCTYPE svg PUBLIC "-//W3C//DTD SVG 1.1//EN" "http://www.w3.org/Graphics/SVG/1.1/DTD/svg11.dtd">
<svg xmlns="http://www.w3.org/2000/svg" version="1.1" width="537px" height="537px" style="shape-rendering:geometricPrecision; text-rendering:geometricPrecision; image-rendering:optimizeQuality; fill-rule:evenodd; clip-rule:evenodd" xmlns:xlink="http://www.w3.org/1999/xlink">
<g><path style="opacity:1" fill="#008000" d="M 261.5,37.5 C 266.167,37.5 270.833,37.5 275.5,37.5C 275.5,137.5 275.5,237.5 275.5,337.5C 270.833,337.5 266.167,337.5 261.5,337.5C 261.5,237.5 261.5,137.5 261.5,37.5 Z"/></g>
<g><path style="opacity:0.991" fill="#008000" d="M 246.5,67.5 C 247.832,157.668 247.832,248.001 246.5,338.5C 237.033,345.766 232.033,355.432 231.5,367.5C 176.499,367.667 121.499,367.5 66.5,367C 86,347.5 105.5,328 125,308.5C 125.333,288.167 125.667,267.833 126,247.5C 145.667,227.833 165.333,208.167 185,188.5C 185.333,168.167 185.667,147.833 186,127.5C 206.062,107.271 226.228,87.2712 246.5,67.5 Z"/></g>
<g><path style="opacity:0.985" fill="#008000" d="M 288.5,67.5 C 291.268,69.0872 293.935,70.9205 296.5,73C 314.333,90.8333 332.167,108.667 350,126.5C 350.333,146.833 350.667,167.167 351,187.5C 370.667,207.167 390.333,226.833 410,246.5C 410.333,266.833 410.667,287.167 411,307.5C 430.833,327.333 450.667,347.167 470.5,367C 415.501,367.5 360.501,367.667 305.5,367.5C 304.939,354.707 299.439,344.707 289,337.5C 288.5,247.501 288.333,157.501 288.5,67.5 Z"/></g>
<g><path style="opacity:0.951" fill="#008000" d="M 262.5,347.5 C 282.167,345.999 290.667,354.999 288,374.5C 281.977,386.516 272.477,390.349 259.5,386C 249.58,380.307 246.08,371.807 249,360.5C 251.442,353.888 255.942,349.555 262.5,347.5 Z"/></g>
<g><path style="opacity:0.878" fill="#000000" d="M 177.5,406.5 C 186.599,404.88 192.932,408.213 196.5,416.5C 195,416.833 193.5,417.167 192,417.5C 178.655,410.493 173.655,414.493 177,429.5C 181.223,433.653 185.057,433.319 188.5,428.5C 186.257,427.526 183.924,427.192 181.5,427.5C 181.5,425.5 181.5,423.5 181.5,421.5C 186.5,421.5 191.5,421.5 196.5,421.5C 196.5,427.167 196.5,432.833 196.5,438.5C 193.921,438.917 191.754,438.25 190,436.5C 179.4,442.37 171.734,439.703 167,428.5C 164.947,418.277 168.447,410.944 177.5,406.5 Z"/></g>
<g><path style="opacity:0.863" fill="#000000" d="M 347.5,406.5 C 353.605,405.651 359.105,406.984 364,410.5C 365.707,412.909 366.54,415.575 366.5,418.5C 363.813,418.664 361.146,418.497 358.5,418C 354.992,413.507 351.159,413.34 347,417.5C 345.364,421.462 345.531,425.462 347.5,429.5C 351.772,433.684 355.439,433.184 358.5,428C 361.146,427.503 363.813,427.336 366.5,427.5C 365.944,433.225 362.944,437.058 357.5,439C 340.743,440.57 334.243,433.07 338,416.5C 340.022,411.98 343.189,408.647 347.5,406.5 Z"/></g>
<g><path style="opacity:0.891" fill="#000000" d="M 80.5,407.5 C 83.8984,407.18 87.2317,407.513 90.5,408.5C 94.0426,418.461 97.376,428.461 100.5,438.5C 97.4816,438.665 94.4816,438.498 91.5,438C 90.8333,436.667 90.1667,435.333 89.5,434C 86.1832,433.502 82.8499,433.335 79.5,433.5C 79.7135,435.144 79.3802,436.644 78.5,438C 75.4459,438.821 72.4459,438.655 69.5,437.5C 73.1752,427.472 76.8419,417.472 80.5,407.5 Z M 84.5,417.5 C 86.0719,420.215 87.0719,423.215 87.5,426.5C 85.712,426.785 84.0453,426.452 82.5,425.5C 83.4822,422.904 84.1489,420.238 84.5,417.5 Z"/></g>
<g><path style="opacity:0.896" fill="#000000" d="M 102.5,407.5 C 106.226,407.177 109.893,407.511 113.5,408.5C 116.588,413.675 119.421,419.008 122,424.5C 122.499,418.843 122.666,413.176 122.5,407.5C 125.167,407.5 127.833,407.5 130.5,407.5C 130.5,417.833 130.5,428.167 130.5,438.5C 127.102,438.82 123.768,438.487 120.5,437.5C 117.667,432.5 114.833,427.5 112,422.5C 111.501,427.823 111.334,433.156 111.5,438.5C 108.5,438.5 105.5,438.5 102.5,438.5C 102.936,428.311 102.936,417.978 102.5,407.5 Z"/></g>
<g><path style="opacity:0.867" fill="#000000" d="M 135.5,407.5 C 138.5,407.5 141.5,407.5 144.5,407.5C 144.334,414.841 144.5,422.174 145,429.5C 147.321,432.917 149.988,433.25 153,430.5C 153.5,422.841 153.666,415.174 153.5,407.5C 156.5,407.5 159.5,407.5 162.5,407.5C 162.666,415.84 162.5,424.173 162,432.5C 159.52,437.824 155.354,440.157 149.5,439.5C 144.045,440.022 139.878,438.022 137,433.5C 135.59,424.916 135.09,416.25 135.5,407.5 Z"/></g>
<g><path style="opacity:0.892" fill="#000000" d="M 201.5,407.5 C 209.833,407.5 218.167,407.5 226.5,407.5C 226.5,409.833 226.5,412.167 226.5,414.5C 221.167,414.5 215.833,414.5 210.5,414.5C 210.5,415.833 210.5,417.167 210.5,418.5C 215.167,418.5 219.833,418.5 224.5,418.5C 224.5,420.833 224.5,423.167 224.5,425.5C 219.833,425.5 215.167,425.5 210.5,425.5C 210.5,427.5 210.5,429.5 210.5,431.5C 215.833,431.5 221.167,431.5 226.5,431.5C 226.5,433.833 226.5,436.167 226.5,438.5C 218.167,438.5 209.833,438.5 201.5,438.5C 201.5,428.167 201.5,417.833 201.5,407.5 Z"/></g>
<g><path style="opacity:0.896" fill="#000000" d="M 230.5,407.5 C 237.841,407.334 245.174,407.5 252.5,408C 257.069,410.541 258.569,414.375 257,419.5C 256.215,421.286 255.049,422.786 253.5,424C 254.333,424.833 255.167,425.667 256,426.5C 256.392,430.528 256.892,434.528 257.5,438.5C 254.5,438.5 251.5,438.5 248.5,438.5C 247.955,435.187 247.455,431.854 247,428.5C 244.619,427.565 242.119,427.232 239.5,427.5C 239.5,431.167 239.5,434.833 239.5,438.5C 236.5,438.5 233.5,438.5 230.5,438.5C 230.5,428.167 230.5,417.833 230.5,407.5 Z M 239.5,414.5 C 242.187,414.336 244.854,414.503 247.5,415C 248.991,417.022 248.658,418.688 246.5,420C 244.19,420.497 241.857,420.663 239.5,420.5C 239.5,418.5 239.5,416.5 239.5,414.5 Z"/></g>
<g><path style="opacity:0.885" fill="#000000" d="M 269.5,407.5 C 272.85,407.335 276.183,407.502 279.5,408C 283.26,417.778 286.927,427.611 290.5,437.5C 287.232,438.487 283.898,438.82 280.5,438.5C 280.509,434.657 278.509,432.99 274.5,433.5C 270.491,432.99 268.491,434.657 268.5,438.5C 265.15,438.665 261.817,438.498 258.5,438C 262.464,427.941 266.131,417.774 269.5,407.5 Z M 273.5,419.5 C 275.461,421.119 276.794,423.286 277.5,426C 275.5,426.667 273.5,426.667 271.5,426C 272.669,423.993 273.335,421.827 273.5,419.5 Z"/></g>
<g><path style="opacity:0.907" fill="#000000" d="M 292.5,407.5 C 295.5,407.5 298.5,407.5 301.5,407.5C 301.5,411.167 301.5,414.833 301.5,418.5C 304.833,418.5 308.167,418.5 311.5,418.5C 311.5,414.833 311.5,411.167 311.5,407.5C 314.5,407.5 317.5,407.5 320.5,407.5C 320.5,417.833 320.5,428.167 320.5,438.5C 317.5,438.5 314.5,438.5 311.5,438.5C 311.5,434.167 311.5,429.833 311.5,425.5C 308.167,425.5 304.833,425.5 301.5,425.5C 301.5,429.833 301.5,434.167 301.5,438.5C 298.5,438.5 295.5,438.5 292.5,438.5C 292.5,428.167 292.5,417.833 292.5,407.5 Z"/></g>
<g><path style="opacity:0.875" fill="#000000" d="M 370.5,407.5 C 373.5,407.5 376.5,407.5 379.5,407.5C 379.5,417.833 379.5,428.167 379.5,438.5C 376.5,438.5 373.5,438.5 370.5,438.5C 370.5,428.167 370.5,417.833 370.5,407.5 Z"/></g>
<g><path style="opacity:0.898" fill="#000000" d="M 384.5,407.5 C 391.175,407.334 397.842,407.5 404.5,408C 410.172,410.768 412.006,415.268 410,421.5C 409.215,423.286 408.049,424.786 406.5,426C 402.3,427.367 397.967,427.867 393.5,427.5C 393.5,431.167 393.5,434.833 393.5,438.5C 390.5,438.5 387.5,438.5 384.5,438.5C 384.5,428.167 384.5,417.833 384.5,407.5 Z M 393.5,414.5 C 395.857,414.337 398.19,414.503 400.5,415C 401.833,416.667 401.833,418.333 400.5,420C 398.19,420.497 395.857,420.663 393.5,420.5C 393.5,418.5 393.5,416.5 393.5,414.5 Z"/></g>
<g><path style="opacity:0.88" fill="#000000" d="M 411.5,407.5 C 420.5,407.5 429.5,407.5 438.5,407.5C 438.5,409.833 438.5,412.167 438.5,414.5C 435.5,414.5 432.5,414.5 429.5,414.5C 429.5,422.5 429.5,430.5 429.5,438.5C 426.5,438.5 423.5,438.5 420.5,438.5C 420.5,430.5 420.5,422.5 420.5,414.5C 417.5,414.5 414.5,414.5 411.5,414.5C 411.5,412.167 411.5,409.833 411.5,407.5 Z"/></g>
<g><path style="opacity:0.887" fill="#000000" d="M 446.5,407.5 C 450.167,407.5 453.833,407.5 457.5,407.5C 460.624,417.539 463.957,427.539 467.5,437.5C 464.232,438.487 460.898,438.82 457.5,438.5C 457.579,437.07 457.246,435.736 456.5,434.5C 453.232,433.513 449.898,433.18 446.5,433.5C 446.579,434.93 446.246,436.264 445.5,437.5C 442.572,438.484 439.572,438.817 436.5,438.5C 439.833,428.167 443.167,417.833 446.5,407.5 Z M 451.5,418.5 C 452.67,420.65 453.67,422.984 454.5,425.5C 452.955,426.452 451.288,426.785 449.5,426.5C 449.858,423.733 450.525,421.067 451.5,418.5 Z"/></g>
<g><path style="opacity:0.847" fill="#000000" d="M 194.5,466.5 C 200.971,465.345 206.471,467.011 211,471.5C 211.813,473.436 212.313,475.436 212.5,477.5C 209.5,477.5 206.5,477.5 203.5,477.5C 202.618,473.857 200.284,472.69 196.5,474C 196.043,474.414 195.709,474.914 195.5,475.5C 201.115,478.212 206.615,481.212 212,484.5C 214.638,489.973 213.472,494.473 208.5,498C 201.716,500.393 195.216,499.893 189,496.5C 187.092,493.794 186.259,490.794 186.5,487.5C 191.087,486.622 194.42,488.122 196.5,492C 199.099,492.769 201.599,492.602 204,491.5C 204.749,490.365 204.583,489.365 203.5,488.5C 199.065,487.299 194.732,485.799 190.5,484C 184.743,476.454 186.076,470.62 194.5,466.5 Z"/></g>
<g><path style="opacity:0.888" fill="#000000" d="M 133.5,467.5 C 137.351,466.971 140.851,467.638 144,469.5C 147.308,479.094 150.808,488.594 154.5,498C 151.167,498.667 147.833,498.667 144.5,498C 143.62,496.644 143.286,495.144 143.5,493.5C 140.15,493.335 136.817,493.502 133.5,494C 132.833,495.333 132.167,496.667 131.5,498C 128.446,498.821 125.446,498.655 122.5,497.5C 126.175,487.472 129.842,477.472 133.5,467.5 Z M 137.5,477.5 C 139.072,480.215 140.072,483.215 140.5,486.5C 138.712,486.785 137.045,486.452 135.5,485.5C 136.785,482.979 137.452,480.313 137.5,477.5 Z"/></g>
<g><path style="opacity:0.919" fill="#000000" d="M 156.5,467.5 C 163.841,467.334 171.174,467.5 178.5,468C 184.742,472.902 185.075,478.236 179.5,484C 180.701,484.903 181.535,486.069 182,487.5C 182.42,491.191 182.92,494.858 183.5,498.5C 180.482,498.665 177.482,498.498 174.5,498C 173.87,494.871 173.204,491.704 172.5,488.5C 169.916,487.607 167.249,487.274 164.5,487.5C 164.5,491.167 164.5,494.833 164.5,498.5C 161.833,498.5 159.167,498.5 156.5,498.5C 156.5,488.167 156.5,477.833 156.5,467.5 Z M 164.5,474.5 C 167.518,474.335 170.518,474.502 173.5,475C 174.86,476.938 174.527,478.604 172.5,480C 169.854,480.497 167.187,480.664 164.5,480.5C 164.5,478.5 164.5,476.5 164.5,474.5 Z"/></g>
<g><path style="opacity:0.875" fill="#000000" d="M 217.5,467.5 C 220.5,467.5 223.5,467.5 226.5,467.5C 226.5,477.833 226.5,488.167 226.5,498.5C 223.5,498.5 220.5,498.5 217.5,498.5C 217.5,488.167 217.5,477.833 217.5,467.5 Z"/></g>
<g><path style="opacity:0.88" fill="#000000" d="M 228.5,467.5 C 237.5,467.5 246.5,467.5 255.5,467.5C 255.5,469.833 255.5,472.167 255.5,474.5C 252.5,474.5 249.5,474.5 246.5,474.5C 246.5,482.5 246.5,490.5 246.5,498.5C 243.5,498.5 240.5,498.5 237.5,498.5C 237.5,490.5 237.5,482.5 237.5,474.5C 234.5,474.5 231.5,474.5 228.5,474.5C 228.5,472.167 228.5,469.833 228.5,467.5 Z"/></g>
<g><path style="opacity:0.892" fill="#000000" d="M 257.5,467.5 C 265.833,467.5 274.167,467.5 282.5,467.5C 282.5,469.833 282.5,472.167 282.5,474.5C 277.167,474.5 271.833,474.5 266.5,474.5C 266.5,475.833 266.5,477.167 266.5,478.5C 271.167,478.5 275.833,478.5 280.5,478.5C 280.5,480.833 280.5,483.167 280.5,485.5C 275.833,485.5 271.167,485.5 266.5,485.5C 266.5,487.5 266.5,489.5 266.5,491.5C 271.833,491.5 277.167,491.5 282.5,491.5C 282.5,493.833 282.5,496.167 282.5,498.5C 274.167,498.5 265.833,498.5 257.5,498.5C 257.5,488.167 257.5,477.833 257.5,467.5 Z"/></g>
<g><path style="opacity:0.883" fill="#000000" d="M 286.5,467.5 C 289.5,467.5 292.5,467.5 295.5,467.5C 295.335,470.85 295.502,474.183 296,477.5C 298.463,474.035 301.296,470.869 304.5,468C 316.829,467.5 329.162,467.333 341.5,467.5C 341.5,469.833 341.5,472.167 341.5,474.5C 338.833,474.5 336.167,474.5 333.5,474.5C 333.5,482.5 333.5,490.5 333.5,498.5C 330.5,498.5 327.5,498.5 324.5,498.5C 324.5,490.5 324.5,482.5 324.5,474.5C 321.5,474.5 318.5,474.5 315.5,474.5C 315.662,472.473 315.495,470.473 315,468.5C 311.283,472.762 307.45,476.928 303.5,481C 307.833,486.667 312.167,492.333 316.5,498C 312.833,498.667 309.167,498.667 305.5,498C 302.642,494.642 299.975,491.142 297.5,487.5C 296.914,487.709 296.414,488.043 296,488.5C 295.502,491.817 295.335,495.15 295.5,498.5C 292.5,498.5 289.5,498.5 286.5,498.5C 286.5,488.167 286.5,477.833 286.5,467.5 Z"/></g>
<g><path style="opacity:0.897" fill="#000000" d="M 344.5,467.5 C 347.167,467.5 349.833,467.5 352.5,467.5C 352.144,475.238 352.644,482.905 354,490.5C 357.012,493.25 359.679,492.917 362,489.5C 362.5,482.174 362.666,474.841 362.5,467.5C 365.5,467.5 368.5,467.5 371.5,467.5C 371.876,476.235 371.376,484.902 370,493.5C 367.122,498.022 362.955,500.022 357.5,499.5C 351.646,500.157 347.48,497.824 345,492.5C 344.5,484.173 344.334,475.84 344.5,467.5 Z"/></g>
<g><path style="opacity:0.92" fill="#000000" d="M 376.5,467.5 C 383.841,467.334 391.174,467.5 398.5,468C 404.755,472.948 405.088,478.282 399.5,484C 400.701,484.903 401.535,486.069 402,487.5C 402.42,491.191 402.92,494.858 403.5,498.5C 400.482,498.665 397.482,498.498 394.5,498C 393.718,495.26 393.218,492.426 393,489.5C 390.519,487.686 387.685,487.02 384.5,487.5C 384.5,491.167 384.5,494.833 384.5,498.5C 381.833,498.5 379.167,498.5 376.5,498.5C 376.5,488.167 376.5,477.833 376.5,467.5 Z M 384.5,474.5 C 387.518,474.335 390.518,474.502 393.5,475C 394.86,476.938 394.527,478.604 392.5,480C 389.854,480.497 387.187,480.664 384.5,480.5C 384.5,478.5 384.5,476.5 384.5,474.5 Z"/></g>
</svg>
